<?xml version="1.0" encoding="UTF-8"?><svg id="_레이어_2" xmlns="http://www.w3.org/2000/svg" viewBox="0 0 34.26 40"><defs><style>.cls-1{fill:#cdd2d6;}.cls-2{fill:#637381;}</style></defs><g id="bell"><path class="cls-2" d="m19.82,4.3c.19-.39.31-.83.31-1.3,0-1.65-1.35-3-3-3s-3,1.35-3,3c0,.46.11.9.3,1.29.96-.2,1.94-.31,2.94-.29.84.02,1.66.12,2.45.29Z"/><path class="cls-2" d="m17.13,40c3.52,0,6.43-2.61,6.92-6h-13.84c.49,3.39,3.4,6,6.92,6Z"/><path class="cls-1" d="m33.6,29.81c-1.4-1.52-2.56-3.9-3.12-5.19-.23-.52-.34-1.06-.34-1.62v-5.6c0-6.39-4.44-11.81-10.31-13.1-.79-.17-1.61-.28-2.45-.29-1-.02-1.98.09-2.94.29-2.4.51-4.62,1.67-6.41,3.43-2.51,2.46-3.89,5.76-3.89,9.28v6c0,.56-.12,1.11-.34,1.62-.57,1.28-1.72,3.67-3.12,5.19-.68.74-.85,1.77-.45,2.69.4.92,1.28,1.49,2.29,1.49h29.25c1.01,0,1.88-.57,2.29-1.49.4-.92.23-1.95-.45-2.69Z"/></g></svg>