<?xml version="1.0" encoding="UTF-8"?><svg id="_레이어_2" xmlns="http://www.w3.org/2000/svg" viewBox="0 0 16 16"><defs><style>.cls-1{fill:#cdd2d6;stroke-width:0px;}</style></defs><g id="_레이어_26"><path class="cls-1" d="m9.41,8L15.71,1.71c.39-.39.39-1.02,0-1.41s-1.02-.39-1.41,0l-6.29,6.29L1.71.29C1.32-.1.68-.1.29.29S-.1,1.32.29,1.71l6.29,6.29L.29,14.29c-.39.39-.39,1.02,0,1.41.2.2.45.29.71.29s.51-.1.71-.29l6.29-6.29,6.29,6.29c.2.2.45.29.71.29s.51-.1.71-.29c.39-.39.39-1.02,0-1.41l-6.29-6.29Z"/></g></svg>