<?xml version="1.0" encoding="UTF-8"?><svg id="_레이어_2" xmlns="http://www.w3.org/2000/svg" viewBox="0 0 100 100"><defs><style>.cls-1{fill:#9d9d9d;stroke-width:0px;}</style></defs><g id="_레이어_26"><path class="cls-1" d="m50,3c25.92,0,47,21.08,47,47s-21.08,47-47,47S3,75.92,3,50,24.08,3,50,3m0-3C22.39,0,0,22.39,0,50s22.39,50,50,50,50-22.39,50-50S77.61,0,50,0h0Z"/><path class="cls-1" d="m45.81,66.48c0-2.56,1.79-4.46,4.13-4.46s4.24,1.9,4.24,4.46-1.85,4.35-4.24,4.35-4.13-1.79-4.13-4.35Zm1.2-30.9l-.16-6.42h6.31l-.22,6.42-.87,21.76h-4.19l-.87-21.76Z"/></g></svg>