<?xml version="1.0" encoding="UTF-8"?><svg id="_레이어_2" xmlns="http://www.w3.org/2000/svg" viewBox="0 0 37.01 38.77"><defs><style>.cls-1{fill:#777;}</style></defs><g id="clip"><path class="cls-1" d="m36.72,14.07c-.39-.39-1.02-.39-1.41,0l-20.51,20.51c-2.92,2.92-7.68,2.92-10.61,0-1.42-1.42-2.2-3.3-2.2-5.3s.78-3.89,2.2-5.3L24.7,3.46c1.95-1.95,5.12-1.95,7.07,0,.94.94,1.46,2.2,1.46,3.54s-.52,2.59-1.46,3.54L15.15,27.15c-.97.97-2.56.97-3.54,0-.47-.47-.73-1.1-.73-1.77s.26-1.3.73-1.77l8.31-8.31c.39-.39.39-1.02,0-1.41s-1.02-.39-1.41,0l-8.31,8.31c-1.75,1.75-1.75,4.61,0,6.36.88.88,2.03,1.32,3.18,1.32s2.3-.44,3.18-1.32l16.62-16.62c1.32-1.32,2.05-3.08,2.05-4.95s-.73-3.63-2.05-4.95c-2.73-2.73-7.17-2.73-9.9,0L2.78,22.55c-3.7,3.7-3.7,9.73,0,13.44,1.85,1.85,4.28,2.78,6.72,2.78s4.87-.93,6.72-2.78l20.51-20.51c.39-.39.39-1.02,0-1.41Z"/></g></svg>