<?xml version="1.0" encoding="UTF-8"?><svg id="_레이어_2" xmlns="http://www.w3.org/2000/svg" viewBox="0 0 40 40"><defs><style>.cls-1{fill:#cdd2d6;}.cls-1,.cls-2{stroke-width:0px;}.cls-2{fill:#637381;}</style></defs><g id="edit"><path class="cls-1" d="m31.5,40H5.5c-3.03,0-5.5-2.47-5.5-5.5V8.5C0,5.47,2.47,3,5.5,3h9.03c.83,0,1.5.67,1.5,1.5s-.67,1.5-1.5,1.5H5.5c-1.38,0-2.5,1.12-2.5,2.5v26c0,1.38,1.12,2.5,2.5,2.5h26c1.38,0,2.5-1.12,2.5-2.5v-9.56c0-.83.67-1.5,1.5-1.5s1.5.67,1.5,1.5v9.56c0,3.03-2.47,5.5-5.5,5.5Z"/><path class="cls-2" d="m25.52,6.36l-12.18,12.18c-.35.35-.61.8-.73,1.28l-1.44,5.6c-.53,2.06,1.35,3.94,3.41,3.41l5.6-1.44c.49-.12.93-.38,1.28-.73l12.18-12.18-8.12-8.12Z"/><path class="cls-2" d="m28.58,1.63h11.48v5.09c0,1.66-1.34,3-3,3h-5.48c-1.66,0-3-1.34-3-3V1.63h0Z" transform="translate(54.58 33.96) rotate(-135)"/></g></svg>