<?xml version="1.0" encoding="UTF-8"?><svg id="_레이어_2" xmlns="http://www.w3.org/2000/svg" viewBox="0 0 40 33"><defs><style>.cls-1{fill:#333;stroke-width:0px;}</style></defs><g id="portfolio"><path class="cls-1" d="m37,0h-13.94c-1.24,0-2.35.76-2.8,1.92l-.03.08h-8.49c-1.64,0-3.14,1.03-3.73,2.56l-.94,2.44H3c-1.66,0-3,1.34-3,3v20c0,1.66,1.34,3,3,3h34c1.66,0,3-1.34,3-3V3c0-1.66-1.34-3-3-3ZM9.88,5.28c.3-.77,1.05-1.28,1.87-1.28h7.71l-1.15,3h-9.09l.66-1.72Zm28.12,4.72v20c0,.55-.45,1-1,1H3c-.55,0-1-.45-1-1V10c0-.55.45-1,1-1h16.68l.49-1.28,1.92-5,.03-.08c.15-.38.52-.64.93-.64h13.94c.55,0,1,.45,1,1v7Z"/></g></svg>