<?xml version="1.0" encoding="UTF-8"?><svg id="_레이어_2" xmlns="http://www.w3.org/2000/svg" viewBox="0 0 40 33.87"><defs><style>.cls-1{fill:#ff4e4e;stroke-width:0px;}</style></defs><g id="heart"><path class="cls-1" d="m29.41,2c4.74,0,8.59,3.85,8.59,8.59,0,10.4-14.25,18.95-18,21.02-3.75-2.07-18-10.62-18-21.02C2,5.85,5.85,2,10.59,2c3.23,0,6.15,1.79,7.63,4.67l1.78,3.45,1.78-3.45c1.48-2.88,4.41-4.67,7.63-4.67m0-2c-4.1,0-7.65,2.34-9.41,5.75C18.24,2.34,14.69,0,10.59,0,4.74,0,0,4.74,0,10.59c0,13.31,20,23.28,20,23.28,0,0,20-9.97,20-23.28,0-5.85-4.74-10.59-10.59-10.59h0Z"/></g></svg>