<?xml version="1.0" encoding="UTF-8"?><svg id="_레이어_2" xmlns="http://www.w3.org/2000/svg" viewBox="0 0 40 33.87"><defs><style>.cls-1{fill:#cdd2d6;stroke-width:0px;}</style></defs><g id="heart"><path class="cls-1" d="m29.41,0c-4.1,0-7.65,2.34-9.41,5.75C18.24,2.34,14.69,0,10.59,0,4.74,0,0,4.74,0,10.59c0,13.31,20,23.28,20,23.28,0,0,20-9.97,20-23.28,0-5.85-4.74-10.59-10.59-10.59Z"/><path class="cls-1" d="m29.41,0c-4.1,0-7.65,2.34-9.41,5.75C18.24,2.34,14.69,0,10.59,0,4.74,0,0,4.74,0,10.59c0,13.31,20,23.28,20,23.28,0,0,20-9.97,20-23.28,0-5.85-4.74-10.59-10.59-10.59Z"/></g></svg>