<?xml version="1.0" encoding="UTF-8"?><svg id="_레이어_2" xmlns="http://www.w3.org/2000/svg" viewBox="0 0 40 40"><defs><style>.cls-1{fill:#d4d4d4;stroke-width:0px;}</style></defs><g id="link"><path class="cls-1" d="m36.91,3.09c-4.12-4.12-10.8-4.12-14.92,0l-6.39,6.39c-.85.85-1.52,1.82-2.02,2.85-.23.47-.41.96-.57,1.46-.31.99-.49,2.01-.5,3.03,0,.49.04.98.1,1.46.29,2.23,1.27,4.4,2.99,6.11,1.15,1.15,2.5,1.96,3.93,2.47l2.49-2.49c-1.57-.22-3.08-.91-4.29-2.11-1.79-1.79-2.49-4.28-2.09-6.61.06-.34.14-.68.25-1.02.32-1.02.87-1.97,1.64-2.8.07-.08.13-.16.2-.23l.34-.34,6.05-6.05c2.94-2.94,7.72-2.94,10.66,0s2.94,7.72,0,10.66l-3.31,3.31-1.69,1.69c.07.51.08,1.02.07,1.53-.02,1-.16,1.99-.45,2.95.39-.29.76-.6,1.12-.96l2.12-2.12,2.48-2.48,1.79-1.79c4.12-4.12,4.12-10.8,0-14.92Z"/><path class="cls-1" d="m3.09,36.91c4.12,4.12,10.8,4.12,14.92,0l6.39-6.39c.85-.85,1.52-1.82,2.02-2.85.23-.47.41-.96.57-1.46.31-.99.49-2.01.5-3.03,0-.49-.04-.98-.1-1.46-.29-2.23-1.27-4.4-2.99-6.11-1.15-1.15-2.5-1.96-3.93-2.47l-2.49,2.49c1.57.22,3.08.91,4.29,2.11,1.79,1.79,2.49,4.28,2.09,6.61-.06.34-.14.68-.25,1.02-.32,1.02-.87,1.97-1.64,2.8-.07.08-.13.16-.2.23l-.34.34-6.05,6.05c-2.94,2.94-7.72,2.94-10.66,0s-2.94-7.72,0-10.66l3.31-3.31,1.69-1.69c-.07-.51-.08-1.02-.07-1.53.02-1,.16-1.99.45-2.95-.39.29-.76.6-1.12.96l-2.12,2.12-2.48,2.48-1.79,1.79c-4.12,4.12-4.12,10.8,0,14.92Z"/></g></svg>