<?xml version="1.0" encoding="UTF-8"?><svg id="_레이어_2" xmlns="http://www.w3.org/2000/svg" viewBox="0 0 40 34"><defs><style>.cls-1{fill:#333;}</style></defs><g id="list"><circle class="cls-1" cx="2.5" cy="2.5" r="2.5"/><circle class="cls-1" cx="2.5" cy="17" r="2.5"/><circle class="cls-1" cx="2.5" cy="31.5" r="2.5"/><path class="cls-1" d="m38.5,4H12.5c-.83,0-1.5-.67-1.5-1.5s.67-1.5,1.5-1.5h26c.83,0,1.5.67,1.5,1.5s-.67,1.5-1.5,1.5Z"/><path class="cls-1" d="m38.5,18.5H12.5c-.83,0-1.5-.67-1.5-1.5s.67-1.5,1.5-1.5h26c.83,0,1.5.67,1.5,1.5s-.67,1.5-1.5,1.5Z"/><path class="cls-1" d="m38.5,33H12.5c-.83,0-1.5-.67-1.5-1.5s.67-1.5,1.5-1.5h26c.83,0,1.5.67,1.5,1.5s-.67,1.5-1.5,1.5Z"/></g></svg>