<?xml version="1.0" encoding="UTF-8"?><svg id="_레이어_2" xmlns="http://www.w3.org/2000/svg" viewBox="0 0 21 25"><defs><style>.cls-1{fill:#9d9d9d;stroke-width:0px;}</style></defs><g id="my2"><path class="cls-1" d="m10.5,11c-3.03,0-5.5-2.47-5.5-5.5S7.47,0,10.5,0s5.5,2.47,5.5,5.5-2.47,5.5-5.5,5.5Zm0-10c-2.48,0-4.5,2.02-4.5,4.5s2.02,4.5,4.5,4.5,4.5-2.02,4.5-4.5S12.98,1,10.5,1Z"/><path class="cls-1" d="m20.5,25c-.28,0-.5-.22-.5-.5,0-5.24-4.26-9.5-9.5-9.5S1,19.26,1,24.5c0,.28-.22.5-.5.5s-.5-.22-.5-.5c0-5.79,4.71-10.5,10.5-10.5s10.5,4.71,10.5,10.5c0,.28-.22.5-.5.5Z"/></g></svg>