<?xml version="1.0" encoding="UTF-8"?><svg id="_레이어_2" xmlns="http://www.w3.org/2000/svg" viewBox="0 0 35 40"><defs><style>.cls-1{fill:#cdd2d6;}.cls-2{fill:#637381;}</style></defs><g id="logout"><path class="cls-1" d="m23.36,22.47c0,.91-1.11,1.35-1.73.68l-4.17-4.47c-.36-.38-.36-.98,0-1.37l4.17-4.47c.62-.66,1.73-.22,1.73.68v2.47h1.64V3c0-1.66-1.34-3-3-3H3s-.05,0-.07,0c.44-.01.9.08,1.34.3l9.58,4.81c.7.35,1.15,1.11,1.15,1.95v25.93h7c1.66,0,3-1.34,3-3v-10h-1.64v2.47Z"/><path class="cls-1" d="m2.51.05C1.09.28,0,1.51,0,3v.23C0,1.56,1.14.3,2.51.05Z"/><path class="cls-2" d="m2.51.05c.14-.02.28-.04.42-.04-.14,0-.28.02-.42.04Z"/><path class="cls-2" d="m13.85,5.12L4.27.31C3.83.08,3.37,0,2.93,0c-.14,0-.28.02-.42.04C1.14.3,0,1.56,0,3.23v28.4c0,1.25.68,2.4,1.73,2.93l10.42,5.24c1.33.67,2.85-.38,2.85-1.95V7.07c0-.84-.45-1.6-1.15-1.95Z"/><path class="cls-2" d="m34,16h-10.64v-2.47c0-.91-1.11-1.35-1.73-.68l-4.17,4.47c-.36.38-.36.98,0,1.37l4.17,4.47c.62.66,1.73.22,1.73-.68v-2.47h10.64c.55,0,1-.45,1-1v-2c0-.55-.45-1-1-1Z"/></g></svg>