<?xml version="1.0" encoding="UTF-8"?><svg id="_레이어_2" xmlns="http://www.w3.org/2000/svg" viewBox="0 0 40 37"><defs><style>.cls-1{fill:#333;}</style></defs><g id="message"><path class="cls-1" d="m20,37c-3.58,0-7.09-.9-10.18-2.59l-5.74,2.27c-.75.3-1.58.13-2.15-.45-.57-.57-.74-1.4-.45-2.15l2.03-5.13c-2.3-3.1-3.51-6.69-3.51-10.44C0,8.3,8.97,0,20,0s20,8.3,20,18.5-8.97,18.5-20,18.5Zm-10.02-4.81l.42.24c2.89,1.68,6.21,2.56,9.6,2.56,9.93,0,18-7.4,18-16.5S29.93,2,20,2,2,9.4,2,18.5c0,3.48,1.19,6.82,3.43,9.66l.36.45-2.45,6.2,6.63-2.62Z"/></g></svg>