<?xml version="1.0" encoding="UTF-8"?><svg id="_레이어_2" xmlns="http://www.w3.org/2000/svg" viewBox="0 0 34 39.8"><defs><style>.cls-1{fill:#333;}</style></defs><g id="turn_off"><path class="cls-1" d="m17,17c-.83,0-1.5-.67-1.5-1.5V1.5c0-.83.67-1.5,1.5-1.5s1.5.67,1.5,1.5v14c0,.83-.67,1.5-1.5,1.5Z"/><path class="cls-1" d="m17,39.8C7.63,39.8,0,32.17,0,22.8c0-6.28,3.44-12.02,8.99-14.99.73-.39,1.64-.12,2.03.61s.12,1.64-.61,2.03c-4.57,2.45-7.4,7.18-7.4,12.35,0,7.72,6.28,14,14,14s14-6.28,14-14c0-5.17-2.84-9.9-7.4-12.35-.73-.39-1.01-1.3-.61-2.03s1.3-1.01,2.03-.61c5.54,2.97,8.99,8.71,8.99,14.99,0,9.37-7.63,17-17,17Z"/></g></svg>