<?xml version="1.0" encoding="UTF-8"?><svg id="_레이어_2" xmlns="http://www.w3.org/2000/svg" viewBox="0 0 40 38"><defs><style>.cls-1{fill:#333;}</style></defs><g id="my"><path class="cls-1" d="m39.98,34.71c-.96-8.42-7.11-15.1-15.05-17.09,2.77-1.67,4.63-4.68,4.63-8.12,0-5.24-4.29-9.5-9.55-9.5s-9.55,4.26-9.55,9.5c0,3.44,1.86,6.46,4.63,8.12C7.12,19.61.98,26.29.02,34.71c-.09.82.17,1.65.73,2.28.58.64,1.4,1.01,2.27,1.01h33.96c.87,0,1.69-.37,2.27-1.01.56-.62.83-1.45.73-2.28ZM12.46,9.5c0-4.14,3.38-7.5,7.54-7.5s7.54,3.36,7.54,7.5-3.38,7.5-7.54,7.5-7.54-3.36-7.54-7.5Zm25.29,26.16c-.2.22-.48.34-.77.34H3.02c-.29,0-.57-.12-.77-.34-.11-.12-.28-.37-.24-.72,1.04-9.09,8.77-15.94,17.98-15.94s16.94,6.85,17.98,15.94c.04.35-.13.6-.24.72Z"/></g></svg>