<?xml version="1.0" encoding="UTF-8"?><svg id="_레이어_2" xmlns="http://www.w3.org/2000/svg" viewBox="0 0 30 40"><defs><style>.cls-1{fill:#368adc;stroke-width:0px;}</style></defs><g id="more_reply"><path class="cls-1" d="m29.66,29.11s.05-.1.08-.15c.04-.06.07-.13.1-.2.03-.07.04-.13.06-.2.02-.06.04-.11.05-.17.05-.26.05-.52,0-.78-.01-.06-.03-.12-.05-.17-.02-.07-.04-.13-.06-.2-.03-.07-.07-.13-.1-.2-.03-.05-.05-.1-.08-.15-.07-.11-.16-.21-.25-.31l-10-10c-.78-.78-2.05-.78-2.83,0-.78.78-.78,2.05,0,2.83l6.59,6.59H4V2c0-1.1-.9-2-2-2S0,.9,0,2v26c0,1.1.9,2,2,2h21.17l-6.59,6.59c-.78.78-.78,2.05,0,2.83.39.39.9.59,1.41.59s1.02-.2,1.41-.59l10-10c.09-.09.18-.2.25-.31Z"/></g></svg>