<?xml version="1.0" encoding="UTF-8"?><svg id="_레이어_2" xmlns="http://www.w3.org/2000/svg" viewBox="0 0 40 40"><defs><style>.cls-1{fill:#fff;}</style></defs><g id="rotate"><path class="cls-1" d="m39,19c-.55,0-1,.45-1,1,0,9.92-8.08,18-18,18-5.26,0-10.22-2.31-13.63-6.26h3.95c.55,0,1-.45,1-1s-.45-1-1-1h-6s-.09.02-.14.03c-.03,0-.06.01-.09.02-.11.03-.21.07-.31.13,0,0-.01,0-.02,0,0,0,0,0-.01.01-.1.07-.19.16-.26.27,0,0,0,0,0,.01-.06.1-.11.21-.13.33,0,.01,0,.02,0,.04,0,.05-.03.1-.03.16v6c0,.55.45,1,1,1s1-.45,1-1v-3.17c3.76,4.07,9.06,6.43,14.68,6.43,11.03,0,20-8.97,20-20,0-.55-.45-1-1-1Z"/><path class="cls-1" d="m20,2c5.26,0,10.22,2.31,13.63,6.26h-3.95c-.55,0-1,.45-1,1s.45,1,1,1h6s.09-.02.13-.03c.03,0,.07-.01.1-.02.11-.03.21-.07.3-.13,0,0,.01,0,.02,0,0,0,0,0,.01-.01.1-.07.19-.16.26-.27,0,0,0,0,0-.01.06-.1.11-.21.13-.33,0-.01,0-.02,0-.04,0-.05.03-.1.03-.16V3.26c0-.55-.45-1-1-1s-1,.45-1,1v3.17C30.92,2.37,25.61,0,20,0,8.97,0,0,8.97,0,20c0,.55.45,1,1,1s1-.45,1-1C2,10.08,10.08,2,20,2Z"/></g></svg>