<?xml version="1.0" encoding="UTF-8"?><svg id="_레이어_2" xmlns="http://www.w3.org/2000/svg" viewBox="0 0 40 40"><defs><style>.cls-1{fill:#cdd2d6;}</style></defs><g id="home"><path class="cls-1" d="m39.56,37.44l-8.68-8.68c2.57-3.05,4.12-6.97,4.12-11.26C35,7.85,27.15,0,17.5,0S0,7.85,0,17.5s7.85,17.5,17.5,17.5c4.29,0,8.21-1.55,11.26-4.12l8.68,8.68c.29.29.68.44,1.06.44s.77-.15,1.06-.44c.59-.59.59-1.54,0-2.12Zm-22.06-5.44c-8,0-14.5-6.5-14.5-14.5S9.5,3,17.5,3s14.5,6.5,14.5,14.5-6.5,14.5-14.5,14.5Z"/><path class="cls-1" d="m8.29,12.99c-.28,0-.57-.08-.82-.24-.69-.45-.89-1.38-.43-2.08.59-.9,1.29-1.72,2.08-2.44.92-.83,1.96-1.52,3.08-2.05.75-.35,1.64-.03,2,.72.35.75.03,1.64-.72,2-.85.4-1.64.93-2.34,1.56-.6.55-1.14,1.17-1.58,1.85-.29.44-.77.68-1.26.68Z"/><path class="cls-1" d="m6.73,21.24c-.7,0-1.32-.49-1.47-1.2-.17-.83-.26-1.69-.26-2.54,0-.59.04-1.18.12-1.76.12-.82.87-1.39,1.7-1.28.82.12,1.39.88,1.28,1.7-.06.44-.09.89-.09,1.34,0,.65.07,1.3.2,1.93.17.81-.35,1.6-1.17,1.77-.1.02-.2.03-.31.03Z"/></g></svg>