<?xml version="1.0" encoding="UTF-8"?><svg id="_레이어_2" xmlns="http://www.w3.org/2000/svg" viewBox="0 0 16 16"><defs><style>.cls-1{fill:#cdd2d6;}.cls-1,.cls-2{stroke-width:0px;}.cls-2{fill:#fff;}</style></defs><g id="_레이어_26"><circle class="cls-1" cx="8" cy="8" r="8"/><path class="cls-2" d="m9.06,8l2.47-2.47c.29-.29.29-.77,0-1.06s-.77-.29-1.06,0l-2.47,2.47-2.47-2.47c-.29-.29-.77-.29-1.06,0s-.29.77,0,1.06l2.47,2.47-2.47,2.47c-.29.29-.29.77,0,1.06.15.15.34.22.53.22s.38-.07.53-.22l2.47-2.47,2.47,2.47c.15.15.34.22.53.22s.38-.07.53-.22c.29-.29.29-.77,0-1.06l-2.47-2.47Z"/></g></svg>