<?xml version="1.0" encoding="UTF-8"?><svg id="_레이어_2" xmlns="http://www.w3.org/2000/svg" viewBox="0 0 38.63 40"><defs><style>.cls-1{fill:#cdd2d6;}.cls-2{fill:#637381;}</style></defs><g id="setting"><path class="cls-1" d="m37.89,23.9l-3.62-3.06c.02-.28.04-.56.04-.84,0-.69-.06-1.37-.15-2.03l3.23-2.73c.87-.74.99-2.21.27-3.46l-2.55-4.42c-.72-1.25-2.05-1.88-3.13-1.5l-4.45,1.6c-.8-.53-1.66-.98-2.56-1.35l-.75-4.15c-.2-1.13-1.42-1.96-2.86-1.96h-5.1c-1.44,0-2.66.84-2.86,1.96l-.84,4.66c-.86.44-1.68.95-2.44,1.54l-3.98-1.43c-1.08-.39-2.41.25-3.13,1.5L.47,12.64c-.72,1.24-.6,2.72.27,3.46l3.62,3.06c-.02.28-.04.56-.04.84,0,.69.06,1.37.15,2.03l-3.23,2.73c-.87.74-.99,2.21-.27,3.46l2.55,4.42c.72,1.24,2.05,1.88,3.13,1.5l4.45-1.6c.8.53,1.66.98,2.56,1.35l.75,4.15c.2,1.13,1.42,1.96,2.86,1.96h5.1c1.44,0,2.66-.84,2.86-1.96l.84-4.66c.86-.44,1.68-.95,2.44-1.54l3.98,1.43c1.08.39,2.41-.25,3.13-1.5l2.55-4.42c.72-1.25.6-2.72-.27-3.46Z"/><circle class="cls-2" cx="19.32" cy="20" r="5"/></g></svg>