<?xml version="1.0" encoding="UTF-8"?><svg id="_레이어_2" xmlns="http://www.w3.org/2000/svg" viewBox="0 0 40 40"><defs><style>.cls-1{fill:#fff;}</style></defs><g id="smile"><path class="cls-1" d="m20,0c-2.76,0-5.39.56-7.78,1.57-1.2.51-2.33,1.13-3.4,1.84-.53.36-1.05.74-1.54,1.15-.99.82-1.9,1.72-2.71,2.71C1.71,10.74,0,15.17,0,20c0,2.76.56,5.39,1.57,7.78.51,1.2,1.13,2.33,1.84,3.4.36.53.74,1.05,1.15,1.54.41.49.84.97,1.29,1.42s.93.88,1.42,1.29c.49.41,1.01.79,1.54,1.15,1.06.72,2.2,1.34,3.4,1.84,2.39,1.01,5.02,1.57,7.78,1.57,4.83,0,9.26-1.71,12.72-4.57.99-.82,1.9-1.72,2.71-2.71.41-.49.79-1.01,1.15-1.54.72-1.06,1.34-2.2,1.84-3.4,1.01-2.39,1.57-5.02,1.57-7.78C40,8.95,31.05,0,20,0Zm0,35c-6.58,0-12.49-4.41-14.37-10.71-.16-.53.14-1.09.67-1.24.53-.16,1.09.14,1.24.67,1.63,5.47,6.75,9.29,12.45,9.29s10.83-3.82,12.45-9.29c.16-.53.71-.83,1.24-.67.53.16.83.71.67,1.24-1.88,6.31-7.79,10.71-14.37,10.71Zm-7.5-20c0,1.1-.9,2-2,2s-2-.9-2-2,.9-2,2-2,2,.9,2,2Zm17-2c1.1,0,2,.9,2,2s-.9,2-2,2-2-.9-2-2,.9-2,2-2Z"/></g></svg>