<?xml version="1.0" encoding="UTF-8"?><svg id="_레이어_2" xmlns="http://www.w3.org/2000/svg" viewBox="0 0 4342.3 1571.65"><defs><style>.cls-1{fill:#2778c7;}</style></defs><g id="moopi"><path class="cls-1" d="m864.26,354.74h-93.55c-72.54,0-138.92,31.37-190.43,83.28-51.51-51.91-117.89-83.28-190.44-83.28h-93.54C132.66,354.74,0,513.85,0,710.12v493.83h211.69v-490.34c0-87.03,58.82-157.58,131.39-157.58s130.77,69.88,131.34,156.33v491.6h211.74v-491.6c.57-86.45,59.12-156.33,131.34-156.33s131.39,70.55,131.39,157.58v490.34h211.69v-493.83c0-196.27-132.66-355.37-296.3-355.37Z"/><path class="cls-1" d="m2639.05,336.73c-239.47,0-433.61,194.13-433.61,433.61s194.13,433.61,433.61,433.61,433.61-194.13,433.61-433.61-194.13-433.61-433.61-433.61Zm0,658.44c-124.17,0-224.84-100.66-224.84-224.83s100.66-224.84,224.84-224.84,224.84,100.66,224.84,224.84-100.66,224.83-224.84,224.83Z"/><path class="cls-1" d="m3589.54,336.73c-82.44,0-159.21,23.42-224.83,63.36v-45.35h-208.78v1216.9h208.78v-431.06c65.62,39.94,142.4,63.36,224.83,63.36,239.48,0,433.61-194.13,433.61-433.61s-194.14-433.61-433.61-433.61Zm0,658.44c-124.17,0-224.83-100.66-224.83-224.83s100.66-224.84,224.83-224.84,224.84,100.66,224.84,224.84-100.66,224.83-224.84,224.83Z"/><path class="cls-1" d="m1683,336.73c-239.48,0-433.61,194.13-433.61,433.61s194.13,433.61,433.61,433.61,433.61-194.13,433.61-433.61-194.13-433.61-433.61-433.61Zm0,658.44c-124.17,0-224.84-100.66-224.84-224.83s100.66-224.84,224.84-224.84,224.83,100.66,224.83,224.84-100.66,224.83-224.83,224.83Z"/><path class="cls-1" d="m4210.8,262.99c72.63,0,131.5-58.87,131.5-131.5S4283.43,0,4210.8,0s-131.49,58.87-131.49,131.5,58.87,131.5,131.49,131.5Z"/><rect class="cls-1" x="4106.42" y="354.74" width="208.78" height="849.21"/></g></svg>