<?xml version="1.0" encoding="UTF-8"?><svg id="_레이어_2" xmlns="http://www.w3.org/2000/svg" viewBox="0 0 169.34 67.22"><defs><style>.cls-1{fill:none;}.cls-2{fill:#2778c7;}</style></defs><g id="text"><path class="cls-1" d="m157.78,30.13s-.02-.02-.04-.02c-.1-.07-.21-.14-.31-.21-.02-.01-.04-.02-.06-.04-.1-.06-.21-.13-.31-.19-.02-.01-.04-.02-.06-.03-.11-.06-.22-.12-.34-.18-.01,0-.03-.01-.04-.02-.26-.13-.52-.24-.8-.34-.02,0-.03-.01-.05-.02-.12-.04-.23-.08-.35-.11-.04-.01-.08-.02-.12-.03-.1-.03-.19-.05-.29-.08-.05-.01-.1-.02-.15-.03-.09-.02-.18-.04-.27-.06-.05,0-.11-.02-.16-.03-.09-.02-.18-.03-.27-.04-.05,0-.11-.01-.16-.02-.1-.01-.2-.02-.3-.03-.05,0-.09,0-.14-.01-.15,0-.29-.01-.44-.01-.68,0-1.35.09-1.98.25-.25.07-.5.14-.74.23-.12.04-.24.09-.36.14-.36.15-.7.33-1.03.53-.54.33-1.05.73-1.5,1.17-.27.27-.52.56-.75.86-.08.1-.15.21-.22.31-.14.21-.27.43-.4.65-.18.34-.34.69-.48,1.05-.13.36-.24.74-.32,1.13-.11.52-.16,1.05-.16,1.6,0,4.38,3.55,7.93,7.93,7.93.15,0,.29,0,.44-.01.05,0,.09,0,.14-.01.1,0,.2-.02.3-.03.05,0,.11-.01.16-.02.09-.01.18-.02.27-.04.05,0,.11-.02.16-.03.09-.02.18-.04.27-.06.05-.01.1-.02.15-.03.1-.02.19-.05.29-.08.04-.01.08-.02.12-.03.12-.04.24-.07.35-.12.02,0,.03-.01.05-.02.27-.1.54-.21.8-.34.01,0,.03-.01.04-.02.11-.06.23-.12.34-.18.02-.01.04-.02.06-.03.11-.06.21-.12.31-.19.02-.01.04-.02.05-.03.11-.07.21-.14.31-.21.01,0,.02-.02.03-.02,1.99-1.44,3.29-3.78,3.29-6.43s-1.3-4.99-3.29-6.43Z"/><circle class="cls-1" cx="18.62" cy="35.18" r="9.66"/><path class="cls-2" d="m18.62,16.55C8.34,16.55,0,24.89,0,35.18s8.34,18.62,18.62,18.62,18.62-8.34,18.62-18.62-8.34-18.62-18.62-18.62Zm0,28.28c-5.33,0-9.66-4.32-9.66-9.66s4.32-9.66,9.66-9.66,9.66,4.32,9.66,9.66-4.32,9.66-9.66,9.66Z"/><path class="cls-2" d="m39.32,15.3v38.51h10v-25.52h9.66v-8.62h-9.66v-.59c0-8.69,11.04-8.44,11.04-8.44V0c-20.35,1.03-21.04,15.3-21.04,15.3Z"/><path class="cls-2" d="m91.22,5.86c-3.14,0-5.69,2.55-5.69,5.69s2.55,5.69,5.69,5.69,5.69-2.55,5.69-5.69-2.55-5.69-5.69-5.69Z"/><rect class="cls-2" x="86.22" y="20.35" width="10" height="33.45"/><path class="cls-2" d="m62.43,15.3v38.51h10v-25.52h9.66v-8.62h-9.66v-.59c0-8.69,11.04-8.44,11.04-8.44V0c-20.35,1.03-21.04,15.3-21.04,15.3Z"/><path class="cls-2" d="m121.06,20.36h0s-6.55,0-6.55,0c-1.59,0-3.1.32-4.48.89v-.89h-10v33.45h10v-19.31c0-3.43,2.78-6.21,6.21-6.21s6.21,2.78,6.21,6.21v19.31h10v-22.42h-.02c-.35-6.04-5.27-10.85-11.36-11.03Z"/><path class="cls-2" d="m163.13,20.35h-10c-.06,0-.11,0-.17,0-9.43,0-17.07,7.64-17.07,17.07s7.64,17.07,17.07,17.07c2.26,0,4.41-.44,6.38-1.24v2.52c0,1.39-1.13,2.51-2.51,2.51h-19.57c0,4.93,4,8.93,8.93,8.93h14.23c4.93,0,8.93-4,8.93-8.93V20.35h-6.21Zm-5.36,22.64s-.02.02-.03.02c-.1.07-.21.14-.31.21-.02.01-.04.02-.05.03-.1.07-.21.13-.31.19-.02.01-.04.02-.06.03-.11.06-.22.12-.34.18-.01,0-.03.01-.04.02-.26.13-.53.24-.8.34-.02,0-.03.01-.05.02-.12.04-.23.08-.35.12-.04.01-.08.02-.12.03-.1.03-.19.05-.29.08-.05.01-.1.02-.15.03-.09.02-.18.04-.27.06-.05,0-.11.02-.16.03-.09.02-.18.03-.27.04-.05,0-.11.01-.16.02-.1.01-.2.02-.3.03-.05,0-.09,0-.14.01-.15,0-.29.01-.44.01-4.38,0-7.93-3.55-7.93-7.93,0-.55.06-1.08.16-1.6.08-.39.19-.76.32-1.13.13-.36.29-.72.48-1.05.12-.22.25-.44.4-.65.07-.11.15-.21.22-.31.23-.31.48-.59.75-.86.45-.45.95-.84,1.5-1.17.33-.2.67-.37,1.03-.53.12-.05.24-.1.36-.14.24-.09.49-.17.74-.23.63-.16,1.3-.25,1.98-.25.15,0,.29,0,.44.01.05,0,.09,0,.14.01.1,0,.2.02.3.03.05,0,.11.01.16.02.09.01.18.02.27.04.05,0,.11.02.16.03.09.02.18.04.27.06.05.01.1.02.15.03.1.02.19.05.29.08.04.01.08.02.12.03.12.04.23.07.35.11.02,0,.03.01.05.02.27.1.54.21.8.34.01,0,.03.01.04.02.11.06.23.12.34.18.02.01.04.02.06.03.11.06.21.12.31.19.02.01.04.02.06.04.11.07.21.14.31.21.01,0,.02.02.04.02,1.99,1.44,3.29,3.78,3.29,6.43s-1.3,4.99-3.29,6.43Z"/></g></svg>