<?xml version="1.0" encoding="UTF-8"?><svg id="_레이어_2" xmlns="http://www.w3.org/2000/svg" viewBox="0 0 34.26 40"><defs><style>.cls-1{fill:#333;}</style></defs><g id="bell"><path class="cls-1" d="m33.6,29.81c-1.4-1.52-2.56-3.9-3.12-5.19-.23-.52-.34-1.06-.34-1.62v-5.6c0-6.39-4.44-11.81-10.31-13.1.19-.39.31-.83.31-1.3,0-1.65-1.35-3-3-3s-3,1.35-3,3c0,.46.11.9.3,1.29-2.4.51-4.62,1.67-6.41,3.43-2.51,2.46-3.89,5.76-3.89,9.28v6c0,.56-.12,1.11-.34,1.62-.57,1.28-1.72,3.67-3.12,5.19-.68.74-.85,1.77-.45,2.69.4.92,1.28,1.49,2.29,1.49h7.71c.49,3.39,3.4,6,6.92,6s6.43-2.61,6.92-6h7.71c1.01,0,1.88-.57,2.29-1.49.4-.92.23-1.95-.45-2.69ZM17.13,2c.55,0,1,.45,1,1s-.45,1-1,1-1-.45-1-1,.45-1,1-1Zm0,36c-2.41,0-4.44-1.72-4.9-4h9.8c-.46,2.28-2.48,4-4.9,4Zm15.08-6.3c-.04.09-.16.3-.46.3H2.5c-.29,0-.42-.21-.46-.3s-.11-.32.09-.54c1.59-1.73,2.86-4.34,3.48-5.73.34-.77.51-1.59.51-2.43v-6c0-2.98,1.17-5.76,3.29-7.85,2.07-2.04,4.8-3.15,7.7-3.15.07,0,.14,0,.21,0,5.95.11,10.79,5.22,10.79,11.4v5.6c0,.84.17,1.66.51,2.43.62,1.4,1.89,4,3.48,5.73,0,0,0,0,0,0,.2.22.13.45.09.54Z"/></g></svg>