<?xml version="1.0" encoding="UTF-8"?><svg id="_레이어_2" xmlns="http://www.w3.org/2000/svg" viewBox="0 0 40 30"><defs><style>.cls-1{fill:#333;}</style></defs><g id="camera"><path class="cls-1" d="m37,4h-6.59l-3.12-3.12c-.57-.57-1.32-.88-2.12-.88h-11.17c-.94,0-1.84.45-2.4,1.2l-2.1,2.8H3c-1.65,0-3,1.35-3,3v20c0,1.65,1.35,3,3,3h34c1.65,0,3-1.35,3-3V7c0-1.65-1.35-3-3-3Zm-23.8-1.6c.19-.25.49-.4.8-.4h11.17c.26,0,.52.11.71.29l1.71,1.71h-15.59l1.2-1.6Zm24.8,24.6c0,.55-.45,1-1,1H3c-.55,0-1-.45-1-1V7c0-.55.45-1,1-1h34c.55,0,1,.45,1,1v20Z"/><path class="cls-1" d="m20,8c-4.96,0-9,4.04-9,9s4.04,9,9,9,9-4.04,9-9-4.04-9-9-9Zm0,16c-3.86,0-7-3.14-7-7s3.14-7,7-7,7,3.14,7,7-3.14,7-7,7Z"/><path class="cls-1" d="m20,12c-2.76,0-5,2.24-5,5s2.24,5,5,5,5-2.24,5-5-2.24-5-5-5Zm0,8c-1.65,0-3-1.35-3-3s1.35-3,3-3,3,1.35,3,3-1.35,3-3,3Z"/></g></svg>