<?xml version="1.0" encoding="UTF-8"?><svg id="_레이어_2" xmlns="http://www.w3.org/2000/svg" viewBox="0 0 34 40"><defs><style>.cls-1{fill:#333;}</style></defs><g id="description"><path class="cls-1" d="m29.5,40H4.5c-2.48,0-4.5-2.02-4.5-4.5V4.5C0,2.02,2.02,0,4.5,0h25c2.48,0,4.5,2.02,4.5,4.5v31c0,2.48-2.02,4.5-4.5,4.5ZM4.5,3c-.83,0-1.5.67-1.5,1.5v31c0,.83.67,1.5,1.5,1.5h25c.83,0,1.5-.67,1.5-1.5V4.5c0-.83-.67-1.5-1.5-1.5H4.5Z"/><path class="cls-1" d="m25.5,11H8.5c-.83,0-1.5-.67-1.5-1.5s.67-1.5,1.5-1.5h17c.83,0,1.5.67,1.5,1.5s-.67,1.5-1.5,1.5Z"/><path class="cls-1" d="m25.5,21.5H8.5c-.83,0-1.5-.67-1.5-1.5s.67-1.5,1.5-1.5h17c.83,0,1.5.67,1.5,1.5s-.67,1.5-1.5,1.5Z"/><path class="cls-1" d="m25.5,32H8.5c-.83,0-1.5-.67-1.5-1.5s.67-1.5,1.5-1.5h17c.83,0,1.5.67,1.5,1.5s-.67,1.5-1.5,1.5Z"/></g></svg>