<?xml version="1.0" encoding="UTF-8"?><svg id="_레이어_2" xmlns="http://www.w3.org/2000/svg" viewBox="0 0 40 34"><defs><style>.cls-1{fill:#707070;}</style></defs><g id="heart_mouseover"><path class="cls-1" d="m29,2c4.96,0,9,4.04,9,9,0,11.9-14.52,19.23-18,20.82-3.49-1.59-18-8.92-18-20.82C2,6.04,6.04,2,11,2c2.92,0,5.68,1.43,7.36,3.84l1.64,2.33,1.64-2.33c1.69-2.4,4.44-3.84,7.36-3.84m0-2c-3.72,0-7.01,1.86-9,4.69C18.01,1.86,14.72,0,11,0,4.92,0,0,4.92,0,11c0,15,20,23,20,23,0,0,20-8,20-23,0-6.08-4.92-11-11-11h0Z"/></g></svg>