<?xml version="1.0" encoding="UTF-8"?><svg id="_레이어_2" xmlns="http://www.w3.org/2000/svg" viewBox="0 0 40 40"><defs><style>.cls-1{fill:#fff;}</style></defs><g id="move"><circle class="cls-1" cx="20" cy="20" r="3"/><path class="cls-1" d="m39.92,20.38c.1-.24.1-.52,0-.76-.05-.12-.12-.23-.22-.33l-3-3c-.39-.39-1.02-.39-1.41,0s-.39,1.02,0,1.41l1.29,1.29h-8.59c-.55,0-1,.45-1,1s.45,1,1,1h8.59l-1.29,1.29c-.39.39-.39,1.02,0,1.41.2.2.45.29.71.29s.51-.1.71-.29l3-3c.09-.09.17-.2.22-.33Z"/><path class="cls-1" d="m20.71.29c-.09-.09-.2-.17-.33-.22-.24-.1-.52-.1-.76,0-.12.05-.23.12-.33.22l-3,3c-.39.39-.39,1.02,0,1.41.2.2.45.29.71.29s.51-.1.71-.29l1.29-1.29v8.59c0,.55.45,1,1,1s1-.45,1-1V3.41l1.29,1.29c.2.2.45.29.71.29s.51-.1.71-.29c.39-.39.39-1.02,0-1.41l-3-3Z"/><path class="cls-1" d="m22.29,35.29l-1.29,1.29v-8.59c0-.55-.45-1-1-1s-1,.45-1,1v8.59l-1.29-1.29c-.39-.39-1.02-.39-1.41,0s-.39,1.02,0,1.41l3,3c.09.09.2.17.33.22.12.05.25.08.38.08s.26-.03.38-.08c.12-.05.23-.12.33-.22l3-3c.39-.39.39-1.02,0-1.41s-1.02-.39-1.41,0Z"/><path class="cls-1" d="m12,19H3.41l1.29-1.29c.39-.39.39-1.02,0-1.41s-1.02-.39-1.41,0l-3,3c-.09.09-.17.2-.22.33-.1.24-.1.52,0,.76.05.12.12.23.22.33l3,3c.2.2.45.29.71.29s.51-.1.71-.29c.39-.39.39-1.02,0-1.41l-1.29-1.29h8.59c.55,0,1-.45,1-1s-.45-1-1-1Z"/></g></svg>