<?xml version="1.0" encoding="UTF-8"?><svg id="_레이어_2" xmlns="http://www.w3.org/2000/svg" viewBox="0 0 40 40"><defs><style>.cls-1{fill:#333;}</style></defs><g id="small_screen"><path class="cls-1" d="m16.5,22H6.5c-.83,0-1.5.67-1.5,1.5s.67,1.5,1.5,1.5h6.38L.44,37.44c-.59.59-.59,1.54,0,2.12.29.29.68.44,1.06.44s.77-.15,1.06-.44l12.44-12.44v6.38c0,.83.67,1.5,1.5,1.5s1.5-.67,1.5-1.5v-10c0-.83-.67-1.5-1.5-1.5Z"/><path class="cls-1" d="m39.56.44c-.59-.59-1.54-.59-2.12,0l-12.44,12.44v-6.38c0-.83-.67-1.5-1.5-1.5s-1.5.67-1.5,1.5v10c0,.83.67,1.5,1.5,1.5h10c.83,0,1.5-.67,1.5-1.5s-.67-1.5-1.5-1.5h-6.38l12.44-12.44c.59-.59.59-1.54,0-2.12Z"/></g></svg>