<?xml version="1.0" encoding="UTF-8"?><svg id="_레이어_2" xmlns="http://www.w3.org/2000/svg" viewBox="0 0 40 40"><defs><style>.cls-1{fill:#333;}</style></defs><g id="refresh"><path class="cls-1" d="m38.99,24.44c-.78-.27-1.64.15-1.9.93-2.38,6.95-9.05,11.63-16.59,11.63-9.64,0-17.49-7.63-17.49-17S10.84,3,20.49,3c4.37,0,8.52,1.58,11.69,4.36l-.93-.18c-.82-.15-1.6.38-1.75,1.19s.38,1.6,1.19,1.75l5.26,1s0,0,0,0c.06.01.12.01.19.02.03,0,.05,0,.08,0,0,0,0,0,0,0,0,0,0,0,0,0,0,0,0,0,0,0,0,0,0,0,0,0,0,0,0,0,0,0,.03,0,.05,0,.08,0,.04,0,.08,0,.13,0,.01,0,.02,0,.04,0,.06-.01.13-.03.19-.05.03-.01.07-.02.1-.03.06-.02.11-.05.17-.08.03-.02.06-.03.09-.05.02-.01.04-.02.06-.03.03-.02.05-.04.07-.06.01,0,.02-.02.03-.03.02-.02.04-.04.06-.06.05-.05.1-.1.14-.15.02-.02.03-.04.05-.06.04-.06.08-.12.11-.18.01-.02.02-.05.04-.07.03-.06.05-.13.07-.19,0-.03.02-.05.02-.08.02-.07.03-.13.03-.2,0-.03,0-.06,0-.09,0-.07,0-.14,0-.22,0-.02,0-.04,0-.05l-.75-5.3c-.12-.82-.88-1.39-1.7-1.27-.82.12-1.39.88-1.27,1.7l.06.45C30.35,1.82,25.55,0,20.49,0,9.19,0,0,8.97,0,20s9.19,20,20.49,20c8.83,0,16.64-5.49,19.43-13.65.27-.78-.15-1.64-.93-1.91Z"/></g></svg>