<?xml version="1.0" encoding="UTF-8"?><svg id="_레이어_2" xmlns="http://www.w3.org/2000/svg" viewBox="0 0 40 40"><defs><style>.cls-1{fill:#fff;}</style></defs><g id="zoom"><path class="cls-1" d="m39.71,38.29l-11.73-11.73c2.49-2.82,4.02-6.52,4.02-10.57C32,7.18,24.82,0,16,0S0,7.18,0,16s7.18,16,16,16c4.05,0,7.75-1.53,10.57-4.02l11.73,11.73c.2.2.45.29.71.29s.51-.1.71-.29c.39-.39.39-1.02,0-1.41Zm-23.71-8.29c-7.72,0-14-6.28-14-14S8.28,2,16,2s14,6.28,14,14-6.28,14-14,14Z"/><path class="cls-1" d="m20.35,4.82c-1.4-.55-2.87-.82-4.35-.82-.55,0-1,.45-1,1s.45,1,1,1c1.23,0,2.45.23,3.62.69.12.05.24.07.36.07.4,0,.78-.24.93-.64.2-.51-.05-1.09-.57-1.29Z"/><path class="cls-1" d="m23.09,6.33c-.44-.33-1.07-.23-1.4.21-.33.45-.23,1.07.21,1.4,2.6,1.91,4.09,4.85,4.09,8.06,0,.55.45,1,1,1s1-.45,1-1c0-3.79-1.84-7.41-4.91-9.67Z"/></g></svg>