<?xml version="1.0" encoding="UTF-8"?><svg id="_레이어_2" xmlns="http://www.w3.org/2000/svg" viewBox="0 0 40 32"><defs><style>.cls-1{fill:#cdd2d6;}.cls-2{fill:#637381;}</style></defs><g id="uploaad"><path class="cls-1" d="m3,15h18c1.66,0,3,1.34,3,3v12c0,1.1-.9,2-2,2H2c-1.1,0-2-.9-2-2v-12c0-1.66,1.34-3,3-3Z"/><path class="cls-2" d="m38,6h-4V2C34,.9,33.1,0,32,0s-2,.9-2,2v4h-4c-1.1,0-2,.9-2,2s.9,2,2,2h4v4c0,1.1.9,2,2,2s2-.9,2-2v-4h4c1.1,0,2-.9,2-2s-.9-2-2-2Z"/><circle class="cls-1" cx="12" cy="6" r="6"/></g></svg>