<?xml version="1.0" encoding="UTF-8"?><svg id="_레이어_2" xmlns="http://www.w3.org/2000/svg" viewBox="0 0 40 29"><defs><style>.cls-1{fill:#cdd2d6;}.cls-2{fill:#637381;}</style></defs><g id="menu"><path class="cls-1" d="m26.5,3H1.5c-.83,0-1.5-.67-1.5-1.5S.67,0,1.5,0h25c.83,0,1.5.67,1.5,1.5s-.67,1.5-1.5,1.5Z"/><path class="cls-2" d="m38.5,16H13.5c-.83,0-1.5-.67-1.5-1.5s.67-1.5,1.5-1.5h25c.83,0,1.5.67,1.5,1.5s-.67,1.5-1.5,1.5Z"/><path class="cls-2" d="m26.5,29H1.5c-.83,0-1.5-.67-1.5-1.5s.67-1.5,1.5-1.5h25c.83,0,1.5.67,1.5,1.5s-.67,1.5-1.5,1.5Z"/></g></svg>