<?xml version="1.0" encoding="UTF-8"?><svg id="_레이어_2" xmlns="http://www.w3.org/2000/svg" viewBox="0 0 40 40"><defs><style>.cls-1{fill:#cdd2d6;}.cls-2{fill:#637381;}</style></defs><g id="portfolio"><path class="cls-1" d="m36.51.04l-11.88,1.98c-.62.1-1.19.4-1.63.84l-6.54,6.54-9.05,9.05L.88,24.98c-1.17,1.17-1.17,3.07,0,4.24l9.9,9.9c1.17,1.17,3.07,1.17,4.24,0l15.58-15.58s0,0,0,0l6.54-6.54c.44-.44.74-1.01.84-1.63l1.98-11.88c.34-2.03-1.42-3.79-3.45-3.45Z"/><circle class="cls-2" cx="33.44" cy="6.56" r="2"/><path class="cls-2" d="m24.1,25.92l-1.94,1.94-1.14-1.14-1.09,1.09c-.41.41-.87.61-1.38.61-.51,0-.97-.21-1.38-.61l-1.18-1.18,1.92-1.92.86.86,3.03-3.03-1.42-1.42-3.57,3.57c-.41.41-.83.61-1.28.61s-.87-.21-1.28-.61l-1.79-1.79c-.41-.41-.61-.87-.61-1.38,0-.51.2-.96.6-1.37l1-1-1.04-1.04,1.94-1.94,1.04,1.04,1.04-1.04c.41-.41.87-.61,1.38-.61s.97.2,1.38.61l1.03,1.03-1.92,1.92-.71-.71-2.88,2.88,1.21,1.21,3.57-3.57c.4-.4.83-.61,1.27-.61.45,0,.87.2,1.28.61l2,2c.41.41.61.87.61,1.38,0,.51-.21.97-.61,1.38l-1.09,1.09,1.14,1.14Z"/></g></svg>