<?xml version="1.0" encoding="UTF-8"?><svg id="_레이어_2" xmlns="http://www.w3.org/2000/svg" viewBox="0 0 40 38.26"><defs><style>.cls-1{fill:#ffc23b;}</style></defs><g id="portfolio"><path class="cls-1" d="m22.03,1.26l4.17,8.44c.49,1,1.45,1.69,2.55,1.85l9.32,1.35c1.85.27,2.59,2.55,1.25,3.85l-6.74,6.57c-.8.78-1.16,1.9-.97,3l1.59,9.28c.32,1.85-1.62,3.25-3.28,2.38l-8.33-4.38c-.99-.52-2.17-.52-3.15,0l-8.33,4.38c-1.66.87-3.59-.54-3.28-2.38l1.59-9.28c.19-1.1-.18-2.22-.97-3L.68,16.76c-1.34-1.31-.6-3.58,1.25-3.85l9.32-1.35c1.1-.16,2.06-.85,2.55-1.85L17.97,1.26c.83-1.68,3.22-1.68,4.05,0Z"/></g></svg>