<?xml version="1.0" encoding="UTF-8"?><svg id="_레이어_2" xmlns="http://www.w3.org/2000/svg" viewBox="0 0 40 28"><defs><style>.cls-1{fill:#fff;}</style></defs><g id="uploaad"><path class="cls-1" d="m32,10.06s0-.04,0-.06c0-5.52-4.48-10-10-10-4.18,0-7.75,2.56-9.25,6.2-.4-.12-.81-.2-1.25-.2-2.49,0-4.5,2.01-4.5,4.5,0,.22.03.42.06.63C3.05,11.81,0,15.3,0,19.5c0,4.53,3.54,8.21,8,8.47v.03h23c4.97,0,9-4.03,9-9,0-4.63-3.5-8.45-8-8.94Zm-7.53,7.48h-2.47v6.46c0,.55-.45,1-1,1h-2c-.55,0-1-.45-1-1v-6.46h-2.47c-.91,0-1.35-1.11-.68-1.73l4.47-4.17c.38-.36.98-.36,1.37,0l4.47,4.17c.66.62.22,1.73-.68,1.73Z"/></g></svg>